<svg width="64" height="64" fill="none" xmlns="http://www.w3.org/2000/svg"><path fill-rule="evenodd" clip-rule="evenodd" d="M39.154 13.092a2 2 0 0 0-2.582 1.154l-13 34a2 2 0 1 0 3.736 1.428l13-34a2 2 0 0 0-1.154-2.582m14.926 15.72-10.631-6.554a1.998 1.998 0 1 0-2.099 3.404l10.123 6.241a.22.22 0 0 1 0 .114L41.35 38.258a2 2 0 1 0 2.099 3.404l10.631-6.554.165-.165a4.225 4.225 0 0 0 0-5.966l-.165-.165" fill="#FFFFFE"/><mask id="a" style="mask-type:alpha" maskUnits="userSpaceOnUse" x="0" y="0" width="64" height="64"><path d="M0 63.96V0h63.94v63.96H0Z" fill="#fff"/></mask><g mask="url(#a)" fill-rule="evenodd" clip-rule="evenodd"><path d="m22.53 38.258-10.123-6.241a.22.22 0 0 1 0-.114l10.123-6.241a2 2 0 1 0-2.099-3.404L9.8 28.812l-.165.165a4.225 4.225 0 0 0 0 5.966l.165.165 10.631 6.554a2 2 0 1 0 2.099-3.404" fill="#FFFFFE"/><path d="m54.245 34.943-.165.165-10.631 6.554a2 2 0 0 1-2.099-3.404l10.123-6.241a.22.22 0 0 0 0-.114L41.35 25.662a2 2 0 1 1 2.099-3.404l10.631 6.554.165.165a4.225 4.225 0 0 1 0 5.966ZM27.308 49.674a2 2 0 1 1-3.736-1.428l13-34a2 2 0 1 1 3.736 1.428l-13 34Zm-5.829-7.714c-.358 0-.721-.096-1.048-.298L9.8 35.108l-.165-.165a4.225 4.225 0 0 1 0-5.966l.165-.165 10.631-6.554a2 2 0 1 1 2.099 3.404l-10.123 6.241a.22.22 0 0 0 0 .114l10.123 6.241a2 2 0 0 1-1.051 3.702Zm10.461-42c-17.673 0-32 14.327-32 32 0 17.673 14.327 32 32 32 17.673 0 32-14.327 32-32 0-17.673-14.327-32-32-32Z" fill="url(#b)" fill-opacity=".8"/></g><defs><linearGradient id="b" x1="31.94" y1="-.04" x2="31.94" y2="63.96" gradientUnits="userSpaceOnUse"><stop stop-color="#7FB52D"/><stop offset="1" stop-color="#B2CD44"/></linearGradient></defs></svg>