<svg width="60" height="60" viewBox="0 0 60 60" fill="none" xmlns="http://www.w3.org/2000/svg">
<g clip-path="url(#clip0_22_145)">
<path d="M5.01 55L8.39 42.58C6.16285 38.7621 4.99274 34.42 5 30C5 16.1925 16.1925 5 30 5C43.8075 5 55 16.1925 55 30C55 43.8075 43.8075 55 30 55C25.5819 55.0071 21.2416 53.8379 17.425 51.6125L5.01 55ZM20.9775 18.27C20.6547 18.29 20.3392 18.3751 20.05 18.52C19.7788 18.6736 19.5312 18.8656 19.315 19.09C19.015 19.3725 18.845 19.6175 18.6625 19.855C17.7385 21.0575 17.2415 22.5335 17.25 24.05C17.255 25.275 17.575 26.4675 18.075 27.5825C19.0975 29.8375 20.78 32.225 23.0025 34.4375C23.5375 34.97 24.06 35.505 24.6225 36.0025C27.381 38.4312 30.6681 40.1826 34.2225 41.1175L35.645 41.335C36.1075 41.36 36.57 41.325 37.035 41.3025C37.7631 41.2649 38.474 41.0678 39.1175 40.725C39.5325 40.505 39.7275 40.395 40.075 40.175C40.075 40.175 40.1825 40.105 40.3875 39.95C40.725 39.7 40.9325 39.5225 41.2125 39.23C41.42 39.015 41.6 38.7625 41.7375 38.475C41.9325 38.0675 42.1275 37.29 42.2075 36.6425C42.2675 36.1475 42.25 35.8775 42.2425 35.71C42.2325 35.4425 42.01 35.165 41.7675 35.0475L40.3125 34.395C40.3125 34.395 38.1375 33.4475 36.81 32.8425C36.67 32.7815 36.52 32.7467 36.3675 32.74C36.1965 32.7224 36.0236 32.7417 35.8606 32.7964C35.6976 32.8512 35.5482 32.9402 35.4225 33.0575V33.0525C35.41 33.0525 35.2425 33.195 33.435 35.385C33.3313 35.5244 33.1884 35.6298 33.0245 35.6876C32.8607 35.7455 32.6833 35.7533 32.515 35.71C32.3521 35.6664 32.1925 35.6113 32.0375 35.545C31.7275 35.415 31.62 35.365 31.4075 35.2725L31.395 35.2675C29.9648 34.6431 28.6406 33.7996 27.47 32.7675C27.155 32.4925 26.8625 32.1925 26.5625 31.9025C25.5789 30.9606 24.7218 29.895 24.0125 28.7325L23.865 28.495C23.7591 28.3354 23.6734 28.1633 23.61 27.9825C23.515 27.615 23.7625 27.32 23.7625 27.32C23.7625 27.32 24.37 26.655 24.6525 26.295C24.8877 25.9958 25.1072 25.6845 25.31 25.3625C25.605 24.8875 25.6975 24.4 25.5425 24.0225C24.8425 22.3125 24.1175 20.61 23.3725 18.92C23.225 18.585 22.7875 18.345 22.39 18.2975C22.255 18.2825 22.12 18.2675 21.985 18.2575C21.6493 18.2408 21.3128 18.2442 20.9775 18.2675V18.27Z" fill="url(#paint0_linear_22_145)" fill-opacity="0.8"/>
</g>
<defs>
<linearGradient id="paint0_linear_22_145" x1="30" y1="5" x2="30" y2="55" gradientUnits="userSpaceOnUse">
<stop stop-color="#7FB52D"/>
<stop offset="1" stop-color="#B2CD44"/>
</linearGradient>
<clipPath id="clip0_22_145">
<rect width="60" height="60" fill="white"/>
</clipPath>
</defs>
</svg>
