<svg width="72" height="45" viewBox="0 0 72 45" fill="none" xmlns="http://www.w3.org/2000/svg">
<path d="M5.77023 44.9491C0.0834684 44.9491 5.67793 39.7618 5.67793 39.7618L20.1765 25.4375C21.5866 24.0448 24.3078 21.9302 25.8988 23.0967C27.4896 24.263 29.6142 26.6266 31.0939 27.9601L34.0922 30.6579C35.6995 31.9368 36.9362 30.6579 36.9362 30.6579L40.004 27.9409C41.4962 26.6186 43.6334 24.3119 45.2267 23.2388C46.8201 22.1658 49.5301 24.2064 50.9363 25.6024L65.35 39.92C71.0393 44.9493 65.4423 44.9493 65.4423 44.9493H5.77023V44.9491ZM8.23126 33.1644C6.82114 34.5581 4.76117 36.9819 3.36895 38.3894C1.79701 39.9777 0 41.1837 0 38.4019L0.0683555 10.4569C0.0734706 8.57301 0.0153451 4.98065 1.44686 5.62526C1.97929 5.86521 2.70772 6.36413 3.69655 7.25433L15.4295 15.8842C17.0508 17.0768 19.3358 18.5364 20.0833 19.5085C20.555 20.1214 20.7713 20.8341 20.0884 21.4503L8.23126 33.1644ZM39.8562 23.2363C38.2363 24.4311 36.4758 26.1262 35.5767 26.1285C34.6777 26.1295 32.8844 24.4733 31.2569 23.2863L5.72745 4.66922C4.09994 3.48347 1.29643 1.09504 2.68981 0.454828C3.69631 -0.00793411 5.45542 8.7491e-06 5.45542 8.7491e-06H65.4476C70.8487 8.7491e-06 68.1021 2.39763 68.1021 2.39763L39.8562 23.2363ZM67.6836 38.3894C66.2888 36.9831 64.2275 34.5581 62.8187 33.1644L50.9684 21.449C50.2818 20.8329 50.4966 20.1201 50.9684 19.5073C51.7156 18.5353 54.002 17.0766 55.6247 15.8842L64.4237 9.41326C66.0449 8.22061 68.177 6.26987 69.6073 5.62526C71.0377 4.98065 70.9756 8.57427 70.9807 10.4569L71.0565 38.4019C71.0574 41.1837 69.2579 39.9777 67.6836 38.3894Z" fill="url(#paint0_linear_22_150)" fill-opacity="0.8"/>
<defs>
<linearGradient id="paint0_linear_22_150" x1="35.5283" y1="0" x2="35.5283" y2="44.9493" gradientUnits="userSpaceOnUse">
<stop stop-color="#7FB52D"/>
<stop offset="1" stop-color="#B2CD44"/>
</linearGradient>
</defs>
</svg>
