<svg width="64" height="64" viewBox="0 0 64 64" fill="none" xmlns="http://www.w3.org/2000/svg">
<path fill-rule="evenodd" clip-rule="evenodd" d="M39.154 13.092C38.6586 12.9026 38.1082 12.9179 37.624 13.1343C37.1398 13.3507 36.7614 13.7506 36.572 14.246L23.572 48.246C23.4739 48.4921 23.4258 48.7554 23.4303 49.0203C23.4349 49.2853 23.492 49.5467 23.5984 49.7894C23.7049 50.032 23.8585 50.2511 24.0503 50.4339C24.2422 50.6168 24.4684 50.7596 24.716 50.8542C24.9635 50.9488 25.2274 50.9933 25.4922 50.9851C25.7571 50.9768 26.0177 50.916 26.2588 50.8062C26.5 50.6964 26.717 50.5398 26.8971 50.3454C27.0772 50.151 27.2169 49.9228 27.308 49.674L40.308 15.674C40.4973 15.1785 40.4821 14.6282 40.2657 14.144C40.0493 13.6598 39.6494 13.2814 39.154 13.092M54.08 28.812L43.449 22.258C43.2255 22.1201 42.977 22.0277 42.7178 21.9859C42.4586 21.9441 42.1936 21.9538 41.9381 22.0143C41.6826 22.0749 41.4416 22.1853 41.2287 22.339C41.0158 22.4928 40.8353 22.6869 40.6975 22.9105C40.5597 23.134 40.4672 23.3824 40.4254 23.6417C40.3836 23.9009 40.3933 24.1658 40.4539 24.4213C40.5145 24.6768 40.6248 24.9179 40.7786 25.1308C40.9323 25.3436 41.1265 25.5241 41.35 25.662L51.473 31.903C51.483 31.9403 51.483 31.9796 51.473 32.017L41.35 38.258C41.1206 38.3929 40.9204 38.5723 40.7612 38.7855C40.602 38.9988 40.487 39.2418 40.4228 39.5001C40.3587 39.7584 40.3468 40.0269 40.3878 40.2899C40.4288 40.5529 40.5219 40.8051 40.6616 41.0316C40.8013 41.2582 40.9848 41.4546 41.2014 41.6093C41.4179 41.764 41.6632 41.8739 41.9228 41.9326C42.1824 41.9913 42.4511 41.9976 42.7132 41.9512C42.9753 41.9047 43.2254 41.8064 43.449 41.662L54.08 35.108L54.245 34.943C55.0346 34.151 55.478 33.0783 55.478 31.96C55.478 30.8416 55.0346 29.7689 54.245 28.977L54.08 28.812" fill="#FFFFFE"/>
<mask id="mask0_24_171" style="mask-type:alpha" maskUnits="userSpaceOnUse" x="0" y="0" width="64" height="64">
<path d="M0 63.96V0H63.94V63.96H0Z" fill="white"/>
</mask>
<g mask="url(#mask0_24_171)">
<path fill-rule="evenodd" clip-rule="evenodd" d="M22.53 38.2579L12.407 32.0169C12.397 31.9796 12.397 31.9403 12.407 31.9029L22.53 25.6619C22.7594 25.527 22.9596 25.3476 23.1188 25.1343C23.278 24.921 23.393 24.6781 23.4572 24.4198C23.5213 24.1615 23.5332 23.8929 23.4922 23.63C23.4512 23.367 23.3581 23.1148 23.2184 22.8883C23.0787 22.6617 22.8952 22.4653 22.6787 22.3106C22.4621 22.1559 22.2168 22.046 21.9572 21.9872C21.6976 21.9285 21.4289 21.9222 21.1668 21.9687C20.9047 22.0152 20.6546 22.1135 20.431 22.2579L9.8 28.8119L9.635 28.9769C8.84542 29.7689 8.40205 30.8416 8.40205 31.9599C8.40205 33.0782 8.84542 34.1509 9.635 34.9429L9.8 35.1079L20.431 41.6619C20.8824 41.9403 21.4259 42.0279 21.9419 41.9055C22.4579 41.7832 22.9042 41.4608 23.1825 41.0094C23.4608 40.558 23.5485 40.0145 23.4261 39.4985C23.3037 38.9825 22.9814 38.5363 22.53 38.2579" fill="#FFFFFE"/>
<path fill-rule="evenodd" clip-rule="evenodd" d="M54.245 34.943L54.08 35.108L43.449 41.662C42.9976 41.9403 42.4541 42.0279 41.9381 41.9056C41.4221 41.7832 40.9758 41.4609 40.6975 41.0095C40.4192 40.5581 40.3315 40.0146 40.4539 39.4986C40.5763 38.9826 40.8986 38.5363 41.35 38.258L51.473 32.017C51.483 31.9796 51.483 31.9403 51.473 31.903L41.35 25.662C41.1206 25.527 40.9204 25.3477 40.7612 25.1344C40.602 24.9211 40.487 24.6781 40.4228 24.4198C40.3587 24.1615 40.3468 23.893 40.3878 23.63C40.4288 23.367 40.5219 23.1149 40.6616 22.8883C40.8013 22.6618 40.9848 22.4654 41.2014 22.3106C41.4179 22.1559 41.6632 22.046 41.9228 21.9873C42.1824 21.9286 42.4511 21.9223 42.7132 21.9688C42.9753 22.0152 43.2254 22.1136 43.449 22.258L54.08 28.812L54.245 28.977C55.0346 29.7689 55.478 30.8416 55.478 31.96C55.478 33.0783 55.0346 34.151 54.245 34.943V34.943ZM27.308 49.674C27.2169 49.9228 27.0772 50.151 26.8971 50.3454C26.717 50.5398 26.5 50.6964 26.2588 50.8062C26.0177 50.916 25.7571 50.9768 25.4922 50.9851C25.2274 50.9933 24.9635 50.9488 24.716 50.8542C24.4684 50.7596 24.2422 50.6168 24.0503 50.434C23.8585 50.2511 23.7049 50.032 23.5984 49.7894C23.492 49.5467 23.4349 49.2853 23.4303 49.0203C23.4258 48.7554 23.4739 48.4921 23.572 48.246L36.572 14.246C36.6631 13.9971 36.8028 13.7689 36.9829 13.5745C37.1631 13.3801 37.38 13.2235 37.6212 13.1137C37.8623 13.0039 38.1229 12.9431 38.3878 12.9348C38.6527 12.9266 38.9165 12.9711 39.164 13.0657C39.4116 13.1603 39.6378 13.3032 39.8297 13.486C40.0215 13.6688 40.1751 13.8879 40.2816 14.1306C40.388 14.3732 40.4451 14.6347 40.4497 14.8996C40.4542 15.1646 40.4061 15.4278 40.308 15.674L27.308 49.674V49.674ZM21.479 41.96C21.121 41.96 20.758 41.864 20.431 41.662L9.8 35.108L9.635 34.943C8.84543 34.151 8.40205 33.0783 8.40205 31.96C8.40205 30.8416 8.84543 29.7689 9.635 28.977L9.8 28.812L20.431 22.258C20.8824 21.9796 21.4259 21.892 21.9419 22.0144C22.4579 22.1367 22.9042 22.4591 23.1825 22.9105C23.4608 23.3619 23.5485 23.9053 23.4261 24.4213C23.3037 24.9374 22.9814 25.3836 22.53 25.662L12.407 31.903C12.397 31.9403 12.397 31.9796 12.407 32.017L22.53 38.258C22.9005 38.4866 23.1862 38.8298 23.3439 39.2355C23.5015 39.6413 23.5225 40.0874 23.4036 40.5062C23.2848 40.9249 23.0325 41.2935 22.6851 41.5559C22.3378 41.8182 21.9143 41.9601 21.479 41.96ZM31.94 -0.0400391C14.267 -0.0400391 -0.0599976 14.287 -0.0599976 31.96C-0.0599976 49.633 14.267 63.96 31.94 63.96C49.613 63.96 63.94 49.633 63.94 31.96C63.94 14.287 49.613 -0.0400391 31.94 -0.0400391Z" fill="url(#paint0_linear_24_171)" fill-opacity="0.8"/>
</g>
<defs>
<linearGradient id="paint0_linear_24_171" x1="31.94" y1="-0.0400391" x2="31.94" y2="63.96" gradientUnits="userSpaceOnUse">
<stop stop-color="#7FB52D"/>
<stop offset="1" stop-color="#B2CD44"/>
</linearGradient>
</defs>
</svg>
