<svg width="40" height="29" viewBox="0 0 40 29" fill="none" xmlns="http://www.w3.org/2000/svg">
<path d="M23.6364 8.78383C23.6364 8.60084 23.697 8.42546 23.8182 8.25772C23.9394 8.08997 24.0758 7.9756 24.2273 7.9146C25.1364 7.57911 26.0682 7.31986 27.0227 7.13687C27.9773 6.95387 28.9697 6.86237 30 6.86237C30.6667 6.86237 31.3182 6.90049 31.9545 6.97674C32.5909 7.05299 33.2121 7.16736 33.8182 7.31986C34 7.38086 34.1667 7.49523 34.3182 7.66298C34.4697 7.83073 34.5455 8.02135 34.5455 8.23484C34.5455 8.57034 34.4318 8.82958 34.2045 9.01258C33.9773 9.19558 33.697 9.24133 33.3636 9.14983C32.8485 8.99733 32.3106 8.88296 31.75 8.80671C31.1894 8.73046 30.6061 8.69234 30 8.69234C29.1212 8.69234 28.2727 8.77621 27.4545 8.94396C26.6364 9.1117 25.8333 9.36332 25.0455 9.69882C24.6212 9.85131 24.2803 9.84369 24.0227 9.67594C23.7652 9.5082 23.6364 9.21083 23.6364 8.78383ZM23.6364 18.8486C23.6364 18.6656 23.697 18.4827 23.8182 18.2997C23.9394 18.1167 24.0758 17.9947 24.2273 17.9337C25.1364 17.5982 26.0682 17.3465 27.0227 17.1788C27.9773 17.0111 28.9697 16.9272 30 16.9272C30.6667 16.9272 31.3182 16.9653 31.9545 17.0416C32.5909 17.1178 33.2121 17.2322 33.8182 17.3847C34 17.4457 34.1667 17.56 34.3182 17.7278C34.4697 17.8955 34.5455 18.0862 34.5455 18.2997C34.5455 18.6351 34.4318 18.8944 34.2045 19.0774C33.9773 19.2604 33.697 19.3061 33.3636 19.2146C32.8485 19.0621 32.3106 18.9478 31.75 18.8715C31.1894 18.7953 30.6061 18.7571 30 18.7571C29.1212 18.7571 28.2727 18.8334 27.4545 18.9859C26.6364 19.1384 25.8333 19.3824 25.0455 19.7179C24.6212 19.8704 24.2803 19.8704 24.0227 19.7179C23.7652 19.5654 23.6364 19.2756 23.6364 18.8486ZM23.6364 13.8162C23.6364 13.6332 23.697 13.4579 23.8182 13.2901C23.9394 13.1224 24.0758 13.008 24.2273 12.947C25.1364 12.6115 26.0682 12.3523 27.0227 12.1693C27.9773 11.9863 28.9697 11.8948 30 11.8948C30.6667 11.8948 31.3182 11.9329 31.9545 12.0091C32.5909 12.0854 33.2121 12.1998 33.8182 12.3523C34 12.4133 34.1667 12.5276 34.3182 12.6954C34.4697 12.8631 34.5455 13.0538 34.5455 13.2672C34.5455 13.6027 34.4318 13.862 34.2045 14.045C33.9773 14.228 33.697 14.2737 33.3636 14.1822C32.8485 14.0297 32.3106 13.9154 31.75 13.8391C31.1894 13.7629 30.6061 13.7247 30 13.7247C29.1212 13.7247 28.2727 13.8086 27.4545 13.9764C26.6364 14.1441 25.8333 14.3957 25.0455 14.7312C24.6212 14.8837 24.2803 14.8761 24.0227 14.7083C23.7652 14.5406 23.6364 14.2432 23.6364 13.8162ZM9.45455 22.8746C11.0909 22.8746 12.6742 23.0652 14.2045 23.4464C15.7348 23.8277 17.2424 24.3995 18.7273 25.162V5.62714C17.3636 4.71216 15.8864 4.00305 14.2955 3.49981C12.7045 2.99657 11.0909 2.74495 9.45455 2.74495C8.30303 2.74495 7.17424 2.88982 6.06818 3.17957C4.96212 3.46931 3.84848 3.82768 2.72727 4.25467V24.1098C3.66667 23.6828 4.73485 23.3702 5.93182 23.1719C7.12879 22.9737 8.30303 22.8746 9.45455 22.8746ZM21.4545 25.162C22.9697 24.3995 24.4545 23.8277 25.9091 23.4464C27.3636 23.0652 28.9091 22.8746 30.5455 22.8746C31.697 22.8746 32.8864 22.9661 34.1136 23.1491C35.3409 23.3321 36.3939 23.5761 37.2727 23.881V4.25467C36.2424 3.73618 35.1515 3.35494 34 3.11094C32.8485 2.86695 31.697 2.74495 30.5455 2.74495C28.9091 2.74495 27.3258 2.99657 25.7955 3.49981C24.2652 4.00305 22.8182 4.71216 21.4545 5.62714V25.162ZM20.0909 28.7762C19.8485 28.7762 19.6288 28.7533 19.4318 28.7076C19.2348 28.6618 19.0606 28.578 18.9091 28.456C17.4848 27.5715 15.9697 26.8852 14.3636 26.3972C12.7576 25.9093 11.1212 25.6653 9.45455 25.6653C8.33333 25.6653 7.24242 25.8025 6.18182 26.077C5.12121 26.3515 4.06061 26.687 3 27.0835C2.30303 27.419 1.62879 27.3732 0.977273 26.9462C0.325758 26.5192 0 25.9093 0 25.1163V3.93443C0 3.47693 0.106061 3.05757 0.318182 2.67632C0.530303 2.29508 0.848485 1.99771 1.27273 1.78422C2.54545 1.17423 3.87121 0.724362 5.25 0.434617C6.62879 0.144873 8.0303 0 9.45455 0C11.3636 0 13.2197 0.259245 15.0227 0.777736C16.8258 1.29623 18.5152 2.08921 20.0909 3.15669C21.6364 2.08921 23.2955 1.29623 25.0682 0.777736C26.8409 0.259245 28.6667 0 30.5455 0C31.9697 0 33.3636 0.144873 34.7273 0.434617C36.0909 0.724362 37.4091 1.17423 38.6818 1.78422C39.1061 1.99771 39.4318 2.29508 39.6591 2.67632C39.8864 3.05757 40 3.47693 40 3.93443V25.1163C40 25.9703 39.6591 26.6184 38.9773 27.0606C38.2955 27.5029 37.6212 27.5105 36.9545 27.0835C35.9242 26.6565 34.8788 26.3134 33.8182 26.0541C32.7576 25.7949 31.6667 25.6653 30.5455 25.6653C28.9091 25.6653 27.303 25.9093 25.7273 26.3972C24.1515 26.8852 22.6667 27.5715 21.2727 28.456C21.1212 28.578 20.947 28.6618 20.75 28.7076C20.553 28.7533 20.3333 28.7762 20.0909 28.7762Z" fill="url(#paint0_linear_20_132)" fill-opacity="0.8"/>
<defs>
<linearGradient id="paint0_linear_20_132" x1="20" y1="0" x2="20" y2="28.7762" gradientUnits="userSpaceOnUse">
<stop stop-color="#7FB52D"/>
<stop offset="1" stop-color="#B2CD44"/>
</linearGradient>
</defs>
</svg>
