<svg width="395" height="42" fill="none" xmlns="http://www.w3.org/2000/svg"><path d="M8.712 37.36c-.4 0-.952-.016-1.656-.048-.704-.016-1.464-.04-2.28-.072a108.744 108.744 0 0 1-4.224-.168c.176-.992.416-2.256.72-3.792.32-1.536.688-3.24 1.104-5.112.416-1.872.856-3.824 1.32-5.856.464-2.048.944-4.08 1.44-6.096s.976-3.928 1.44-5.736c.464-1.808.896-3.416 1.296-4.824 1.616-.208 3.208-.376 4.776-.504a50.913 50.913 0 0 1 4.608-.216c.848 0 1.696.024 2.544.072.848.048 1.688.128 2.52.24.304 1.408.616 3.024.936 4.848.32 1.824.64 3.976.96 6.456.336 2.464.664 5.368.984 8.712.336 3.328.672 7.208 1.008 11.64-.528.064-1.28.136-2.256.216-.976.08-2 .136-3.072.168-1.056.048-2 .072-2.832.072-.032-.464-.064-.992-.096-1.584a92.553 92.553 0 0 0-.072-1.896l-.096-2.04a1144.197 1144.197 0 0 0-.096-3.768c-.512.016-1.064.04-1.656.072-.592.016-1.192.048-1.8.096-.592.032-1.152.072-1.68.12-.528.032-.992.072-1.392.12-.4.048-.688.088-.864.12-.24 1.088-.464 2.184-.672 3.288a149.802 149.802 0 0 0-.552 3.096c-.16.944-.28 1.736-.36 2.376Zm2.568-15.408c.368-.064.944-.136 1.728-.216.784-.08 1.6-.144 2.448-.192.848-.048 1.536-.08 2.064-.096a53.09 53.09 0 0 1-.12-1.896c-.032-.944-.08-1.968-.144-3.072-.064-1.12-.128-2.144-.192-3.072-.048-.944-.096-1.592-.144-1.944-.256 0-.64.016-1.152.048-.512.032-1.008.064-1.488.096s-.816.064-1.008.096c-.096.464-.232 1.112-.408 1.944-.16.816-.336 1.728-.528 2.736-.192 1.008-.384 2-.576 2.976-.176.96-.336 1.824-.48 2.592ZM37.565 37.312c-.48.016-1.072.016-1.776 0-.704 0-1.424-.008-2.16-.024-.592-.016-1.272-.04-2.04-.072a29.83 29.83 0 0 1-1.608-.096c.144-1.344.264-2.864.36-4.56.112-1.696.2-3.576.264-5.64.064-2.064.112-4.32.144-6.768.032-2.448.048-5.096.048-7.944.608-.08 1.328-.144 2.16-.192a43.746 43.746 0 0 1 2.52-.072c.592 0 1.16.016 1.704.048.56.016 1.056.064 1.488.144v.888c.016.432.016.912 0 1.44 0 .512-.008.976-.024 1.392.416-.608 1.096-1.24 2.04-1.896.944-.672 2.04-1.24 3.288-1.704a11.001 11.001 0 0 1 3.864-.696c2.448 0 4.32.496 5.616 1.488 1.296.976 2.184 2.448 2.664 4.416.48 1.952.72 4.4.72 7.344 0 1.024-.032 2.224-.096 3.6-.048 1.36-.128 2.792-.24 4.296a87.8 87.8 0 0 1-.432 4.368c-.32.032-.832.056-1.536.072a53.692 53.692 0 0 1-4.512 0c-.736-.016-1.28-.04-1.632-.072a86.89 86.89 0 0 0 .576-3.36 73.43 73.43 0 0 0 .528-4.296c.144-1.536.216-3 .216-4.392 0-1.344-.112-2.512-.336-3.504-.208-.992-.616-1.76-1.224-2.304-.592-.56-1.472-.84-2.64-.84-.96 0-1.88.168-2.76.504-.88.336-1.68.752-2.4 1.248-.72.48-1.336.952-1.848 1.416-.016 2.528-.08 4.816-.192 6.864-.112 2.032-.232 3.8-.36 5.304a70.52 70.52 0 0 1-.384 3.6ZM79.264 36.928a9.973 9.973 0 0 1-.072-.96l-.048-1.272v-1.08c-.192.272-.496.6-.912.984-.4.368-.92.736-1.56 1.104-.64.368-1.416.68-2.328.936-.912.24-1.976.36-3.192.36-2.016 0-3.752-.488-5.208-1.464-1.456-.976-2.576-2.304-3.36-3.984-.784-1.696-1.176-3.6-1.176-5.712 0-2.08.392-4.016 1.176-5.808.8-1.808 1.992-3.264 3.576-4.368 1.584-1.12 3.576-1.68 5.976-1.68 1.2 0 2.288.136 3.264.408.992.272 1.832.616 2.52 1.032.688.4 1.176.808 1.464 1.224.048-.88.112-1.888.192-3.024.08-1.152.168-2.328.264-3.528a906.065 906.065 0 0 0 .552-6.24c.08-.784.136-1.304.168-1.56.928 0 1.968.056 3.12.168 1.168.096 2.2.264 3.096.504a361.493 361.493 0 0 0-.648 10.992c-.16 3.648-.272 7.384-.336 11.208-.048 3.808-.072 7.8-.072 11.976a150.155 150.155 0 0 1-4.392-.096 36.53 36.53 0 0 1-2.064-.12Zm-6.12-6.912c.704 0 1.352-.08 1.944-.24a7.39 7.39 0 0 0 1.632-.648 8.39 8.39 0 0 0 1.296-.912 6.97 6.97 0 0 0 .96-1.008V24.592c.016-.48.024-.936.024-1.368.016-.432.032-.768.048-1.008-.352-.336-.84-.664-1.464-.984a9.846 9.846 0 0 0-2.064-.768 8.256 8.256 0 0 0-2.256-.312c-1.568 0-2.792.472-3.672 1.416-.864.928-1.296 2.136-1.296 3.624 0 1.568.416 2.768 1.248 3.6.848.816 2.048 1.224 3.6 1.224ZM97.632 15.496c.368-.72.928-1.408 1.68-2.064.768-.656 1.672-1.192 2.712-1.608a9.084 9.084 0 0 1 3.36-.624c.72 0 1.448.072 2.184.216.736.144 1.272.336 1.608.576l-1.488 7.632a17.917 17.917 0 0 0-1.368-.48c-.56-.176-1.2-.264-1.92-.264-.736 0-1.456.128-2.16.384a6.97 6.97 0 0 0-1.92 1.032 7.44 7.44 0 0 0-1.56 1.608c.16.928.336 2.112.528 3.552.208 1.44.4 2.92.576 4.44.176 1.52.32 2.904.432 4.152.112 1.248.168 2.16.168 2.736-1.12.144-2.416.24-3.888.288-1.472.048-2.888.064-4.248.048 0-1.344-.04-2.872-.12-4.584-.064-1.712-.16-3.496-.288-5.352a147.667 147.667 0 0 0-.48-5.52 89.546 89.546 0 0 0-.624-5.064c-.224-1.552-.464-2.872-.72-3.96a33.007 33.007 0 0 1 2.544-.624 46.007 46.007 0 0 1 2.52-.456c.752-.128 1.232-.2 1.44-.216.192.448.408 1.112.648 1.992.24.864.368 1.584.384 2.16ZM134.371 32.704a10.836 10.836 0 0 1-1.68 1.608c-.672.528-1.48 1.008-2.424 1.44-.928.416-1.992.752-3.192 1.008-1.2.24-2.544.36-4.032.36-2.416 0-4.56-.456-6.432-1.368a10.261 10.261 0 0 1-4.392-4.104c-1.04-1.824-1.56-4.088-1.56-6.792 0-2.704.544-5.056 1.632-7.056 1.088-2.016 2.608-3.576 4.56-4.68 1.952-1.12 4.232-1.68 6.84-1.68 3.296 0 5.888.92 7.776 2.76 1.904 1.824 2.896 4.352 2.976 7.584a17.32 17.32 0 0 1-.024 1.608c-.032.48-.096.992-.192 1.536a43.07 43.07 0 0 0-1.536-.048c-.784-.016-1.672-.032-2.664-.048a191.196 191.196 0 0 0-4.704-.096c-1.392 0-2.744.064-4.056.192a52.997 52.997 0 0 0-3.264.408c0 .288.016.576.048.864.048.272.112.536.192.792a3.765 3.765 0 0 0 1.08 1.68 5.688 5.688 0 0 0 1.872 1.08c.736.24 1.512.36 2.328.36.736 0 1.408-.088 2.016-.264a7.838 7.838 0 0 0 1.704-.744 10.25 10.25 0 0 0 1.392-.984c.432-.368.832-.728 1.2-1.08.096.08.344.32.744.72.4.384.848.864 1.344 1.44.496.56.968 1.152 1.416 1.776.448.624.792 1.2 1.032 1.728Zm-16.104-11.856a41.094 41.094 0 0 1 6.336-.456c.752 0 1.416.008 1.992.024a36.72 36.72 0 0 1 1.248.048c0-.336-.048-.704-.144-1.104a4.06 4.06 0 0 0-.768-1.56 4.08 4.08 0 0 0-1.44-1.2c-.576-.304-1.272-.456-2.088-.456-1.024 0-1.92.224-2.688.672a4.84 4.84 0 0 0-1.752 1.752 5.117 5.117 0 0 0-.696 2.28ZM127.795.784a7.937 7.937 0 0 1 2.016 1.464c.592.576 1.08 1.12 1.464 1.632.4.496.664.848.792 1.056a37.84 37.84 0 0 0-2.016.84c-.752.32-1.52.68-2.304 1.08-.768.384-1.504.76-2.208 1.128-.704.368-1.328.704-1.872 1.008-.528.304-.92.536-1.176.696a57.45 57.45 0 0 0-.744-.36c-.352-.192-.744-.408-1.176-.648-.432-.256-.84-.504-1.224-.744-.368-.256-.624-.464-.768-.624.432-.544 1.056-1.16 1.872-1.848.832-.688 1.72-1.36 2.664-2.016a38.175 38.175 0 0 1 2.712-1.704c.848-.496 1.504-.816 1.968-.96ZM164.19 37.384c-1.2 0-2.424-.144-3.672-.432a17.545 17.545 0 0 1-3.6-1.272 14.984 14.984 0 0 1-3.168-2.064 12.157 12.157 0 0 1-2.424-2.856c.096-.16.352-.432.768-.816.416-.4.896-.832 1.44-1.296.544-.48 1.08-.92 1.608-1.32.544-.4.992-.688 1.344-.864a41.152 41.152 0 0 0 1.632 1.776 16.05 16.05 0 0 0 1.872 1.608c.672.464 1.392.84 2.16 1.128a6.914 6.914 0 0 0 2.448.432c.992 0 1.776-.184 2.352-.552.592-.368 1.016-.832 1.272-1.392.256-.576.384-1.16.384-1.752 0-.48-.12-.936-.36-1.368-.24-.432-.6-.84-1.08-1.224-.48-.4-1.08-.784-1.8-1.152a16.888 16.888 0 0 0-2.496-1.08c-1.92-.736-3.656-1.512-5.208-2.328-1.552-.832-2.792-1.832-3.72-3-.912-1.168-1.368-2.632-1.368-4.392 0-1.872.52-3.44 1.56-4.704 1.04-1.264 2.416-2.216 4.128-2.856 1.712-.656 3.552-.984 5.52-.984 1.488 0 2.928.168 4.32.504 1.408.32 2.72.808 3.936 1.464a11.388 11.388 0 0 1 3.144 2.472c-.24.352-.616.824-1.128 1.416a41.152 41.152 0 0 1-1.632 1.776 27.26 27.26 0 0 1-1.464 1.416 13.016 13.016 0 0 0-2.136-1.68 10.689 10.689 0 0 0-2.472-1.2 7.833 7.833 0 0 0-2.616-.456c-1.024 0-1.888.224-2.592.672-.704.432-1.056 1.088-1.056 1.968 0 .4.088.76.264 1.08.192.32.456.608.792.864s.736.496 1.2.72c.464.208.984.408 1.56.6a81.871 81.871 0 0 1 4.656 1.704c1.488.592 2.8 1.28 3.936 2.064 1.152.768 2.056 1.712 2.712 2.832.656 1.12.984 2.488.984 4.104 0 1.52-.296 2.92-.888 4.2a10.062 10.062 0 0 1-2.496 3.312c-1.056.928-2.32 1.648-3.792 2.16-1.456.512-3.064.768-4.824.768ZM188.702 36.952l-1.56.096c-.752.064-1.552.096-2.4.096-.624 0-1.256-.024-1.896-.072-.624-.032-1.24-.08-1.848-.144.08-.416.168-1.264.264-2.544.112-1.296.216-2.816.312-4.56.112-1.744.216-3.544.312-5.4.112-1.872.192-3.624.24-5.256.064-1.632.096-2.944.096-3.936l1.416-.072a69.78 69.78 0 0 1 2.016-.072c.72-.032 1.408-.056 2.064-.072a33.79 33.79 0 0 1 1.56-.048c.08.496.144 1.296.192 2.4.048 1.104.072 2.336.072 3.696 0 1.456-.024 3-.072 4.632a146.712 146.712 0 0 1-.168 4.752 76.457 76.457 0 0 1-.264 4.032c-.112 1.152-.224 1.976-.336 2.472Zm-2.688-25.08c-1.44 0-2.648-.416-3.624-1.248-.976-.848-1.464-1.96-1.464-3.336 0-.944.232-1.752.696-2.424a4.523 4.523 0 0 1 1.8-1.536 5.338 5.338 0 0 1 2.376-.552c1.328 0 2.424.432 3.288 1.296.88.864 1.32 1.976 1.32 3.336 0 1.264-.416 2.328-1.248 3.192-.832.848-1.88 1.272-3.144 1.272ZM196.81 37.192c-.08-1.04-.16-2.368-.24-3.984a927.238 927.238 0 0 1-.192-5.256l-.144-5.664c-.032-1.872-.056-3.6-.072-5.184a404.49 404.49 0 0 1-.024-3.864c.384-.096.896-.192 1.536-.288.64-.112 1.32-.208 2.04-.288.72-.096 1.4-.168 2.04-.216a17.094 17.094 0 0 1 1.584-.096c.016.256.032.584.048.984.016.384.024.784.024 1.2.016.416.024.792.024 1.128v.768c.096-.304.32-.696.672-1.176.352-.48.832-.96 1.44-1.44.624-.48 1.376-.88 2.256-1.2.88-.336 1.896-.504 3.048-.504 1.104 0 2.04.208 2.808.624.768.416 1.408.96 1.92 1.632a8.318 8.318 0 0 1 1.536 3.36c.096.4.168.792.216 1.176.352-1.168.936-2.28 1.752-3.336a9.82 9.82 0 0 1 3.096-2.616c1.232-.688 2.648-1.032 4.248-1.032 1.92 0 3.496.344 4.728 1.032 1.248.688 2.216 1.704 2.904 3.048.688 1.344 1.168 2.992 1.44 4.944s.408 4.184.408 6.696c0 .992-.024 2.032-.072 3.12a115.47 115.47 0 0 1-.144 3.288 906.917 906.917 0 0 1-.192 3.216c-.576.032-1.176.056-1.8.072a36.546 36.546 0 0 1-3.792 0 40.514 40.514 0 0 1-1.944-.096c.32-2.384.584-4.576.792-6.576.208-2.016.312-3.784.312-5.304 0-2.224-.256-3.92-.768-5.088-.496-1.168-1.352-1.752-2.568-1.752-1.104 0-2 .336-2.688 1.008-.688.672-1.224 1.6-1.608 2.784-.384 1.184-.664 2.56-.84 4.128a75.233 75.233 0 0 0-.336 4.992c-.032.896-.064 1.832-.096 2.808a90.827 90.827 0 0 0-.048 2.976c-.32.016-.776.032-1.368.048-.576.032-1.184.048-1.824.048-.752 0-1.48-.016-2.184-.048-.688-.016-1.192-.048-1.512-.096a209.532 209.532 0 0 1-.024-3.072v-2.952a81.21 81.21 0 0 0-.144-5.04c-.08-1.552-.256-2.896-.528-4.032-.272-1.152-.68-2.048-1.224-2.688-.528-.64-1.248-.96-2.16-.96-.624 0-1.232.136-1.824.408a6.789 6.789 0 0 0-1.632 1.056c-.48.432-.888.912-1.224 1.44a5.353 5.353 0 0 0-.672 1.536c.096 2.544.2 4.864.312 6.96.112 2.096.216 3.808.312 5.136.096 1.312.16 2.104.192 2.376-.176.016-.544.032-1.104.048s-1.048.024-1.464.024c-1.008 0-2.016-.024-3.024-.072a44.544 44.544 0 0 1-2.208-.144ZM253.181 37.528c-4.24 0-7.432-1.12-9.576-3.36-2.144-2.256-3.216-5.528-3.216-9.816 0-2.864.552-5.24 1.656-7.128 1.104-1.904 2.632-3.336 4.584-4.296 1.968-.96 4.24-1.44 6.816-1.44 2.624 0 4.8.6 6.528 1.8 1.744 1.2 3.048 2.856 3.912 4.968.864 2.112 1.296 4.552 1.296 7.32 0 2.416-.464 4.52-1.392 6.312-.928 1.792-2.288 3.184-4.08 4.176-1.776.976-3.952 1.464-6.528 1.464Zm-.264-6.888c.88 0 1.656-.152 2.328-.456a4.648 4.648 0 0 0 1.728-1.296c.48-.576.84-1.248 1.08-2.016.24-.768.36-1.608.36-2.52 0-1.424-.208-2.68-.624-3.768-.4-1.104-1-1.96-1.8-2.568-.784-.624-1.76-.936-2.928-.936-1.264 0-2.296.32-3.096.96-.8.64-1.392 1.48-1.776 2.52a9.65 9.65 0 0 0-.552 3.288c0 1.968.448 3.592 1.344 4.872.912 1.28 2.224 1.92 3.936 1.92ZM242.765 5.584c.256-.736.704-1.448 1.344-2.136a7.687 7.687 0 0 1 2.328-1.728 6.552 6.552 0 0 1 2.928-.672c.928 0 1.72.208 2.376.624a14.22 14.22 0 0 1 1.776 1.32c.464.416.928.784 1.392 1.104.464.32.984.48 1.56.48.72 0 1.304-.272 1.752-.816a5.703 5.703 0 0 0 1.032-1.848l3.72 2.304c-.08.384-.272.864-.576 1.44a8.582 8.582 0 0 1-1.224 1.68 6.714 6.714 0 0 1-1.872 1.416c-.72.368-1.544.552-2.472.552a4.29 4.29 0 0 1-2.352-.672 19.856 19.856 0 0 1-1.92-1.416 13.32 13.32 0 0 0-1.416-1.08c-.464-.304-.928-.456-1.392-.456-.624 0-1.168.176-1.632.528a4.73 4.73 0 0 0-1.128 1.2c-.288.448-.504.84-.648 1.176l-3.576-3ZM292.058 32.704a10.836 10.836 0 0 1-1.68 1.608c-.672.528-1.48 1.008-2.424 1.44-.928.416-1.992.752-3.192 1.008-1.2.24-2.544.36-4.032.36-2.416 0-4.56-.456-6.432-1.368a10.261 10.261 0 0 1-4.392-4.104c-1.04-1.824-1.56-4.088-1.56-6.792 0-2.704.544-5.056 1.632-7.056 1.088-2.016 2.608-3.576 4.56-4.68 1.952-1.12 4.232-1.68 6.84-1.68 3.296 0 5.888.92 7.776 2.76 1.904 1.824 2.896 4.352 2.976 7.584a17.32 17.32 0 0 1-.024 1.608c-.032.48-.096.992-.192 1.536a43.07 43.07 0 0 0-1.536-.048c-.784-.016-1.672-.032-2.664-.048a191.196 191.196 0 0 0-4.704-.096c-1.392 0-2.744.064-4.056.192a52.997 52.997 0 0 0-3.264.408c0 .288.016.576.048.864.048.272.112.536.192.792a3.765 3.765 0 0 0 1.08 1.68 5.688 5.688 0 0 0 1.872 1.08c.736.24 1.512.36 2.328.36.736 0 1.408-.088 2.016-.264a7.838 7.838 0 0 0 1.704-.744 10.25 10.25 0 0 0 1.392-.984c.432-.368.832-.728 1.2-1.08.096.08.344.32.744.72.4.384.848.864 1.344 1.44.496.56.968 1.152 1.416 1.776.448.624.792 1.2 1.032 1.728Zm-16.104-11.856a41.094 41.094 0 0 1 6.336-.456c.752 0 1.416.008 1.992.024a36.72 36.72 0 0 1 1.248.048c0-.336-.048-.704-.144-1.104a4.06 4.06 0 0 0-.768-1.56 4.08 4.08 0 0 0-1.44-1.2c-.576-.304-1.272-.456-2.088-.456-1.024 0-1.92.224-2.688.672a4.84 4.84 0 0 0-1.752 1.752 5.117 5.117 0 0 0-.696 2.28ZM306.816 38.896c-1.872 0-3.592-.232-5.16-.696-1.552-.448-2.872-.976-3.96-1.584-1.072-.624-1.848-1.184-2.328-1.68.096-.304.28-.744.552-1.32a38.754 38.754 0 0 1 2.16-3.84c.384-.592.728-1.032 1.032-1.32.768.656 1.6 1.304 2.496 1.944a15.218 15.218 0 0 0 2.76 1.536c.944.4 1.824.6 2.64.6.64 0 1.216-.08 1.728-.24.512-.176.912-.432 1.2-.768.304-.336.456-.752.456-1.248 0-.576-.28-1.128-.84-1.656-.544-.544-1.248-1.056-2.112-1.536a24.887 24.887 0 0 0-2.712-1.296 23.34 23.34 0 0 1-3.624-1.848c-1.12-.72-2.024-1.6-2.712-2.64-.688-1.056-1.032-2.368-1.032-3.936 0-1.6.472-2.944 1.416-4.032s2.176-1.912 3.696-2.472c1.536-.56 3.176-.84 4.92-.84 1.648 0 3.32.232 5.016.696 1.696.448 3.08 1.096 4.152 1.944-.096.304-.304.768-.624 1.392-.304.624-.68 1.296-1.128 2.016a16.271 16.271 0 0 1-1.392 1.944c-.656-.56-1.48-1.096-2.472-1.608a6.714 6.714 0 0 0-3.12-.768c-.544 0-1.088.056-1.632.168-.528.112-.968.312-1.32.6-.336.288-.504.68-.504 1.176 0 .48.184.912.552 1.296.368.368.904.728 1.608 1.08.72.352 1.56.72 2.52 1.104.96.384 1.936.84 2.928 1.368a13.922 13.922 0 0 1 2.736 1.848 8.579 8.579 0 0 1 2.04 2.52c.512.944.768 2.032.768 3.264 0 1.968-.488 3.608-1.464 4.92-.976 1.312-2.28 2.288-3.912 2.928-1.616.656-3.392.984-5.328.984Z" fill="#000"/><path d="M370.491.328c1.6.32 2.84.688 3.72 1.104.88.416 1.544.888 1.992 1.416a163.306 163.306 0 0 1-4.128 11.52A170.577 170.577 0 0 1 367.395 25c-1.6 3.328-3.192 6.376-4.776 9.144-1.584 2.768-3.088 5.152-4.512 7.152-1.056-.24-2.104-.656-3.144-1.248s-1.864-1.184-2.472-1.776c1.184-1.888 2.44-4.088 3.768-6.6a197.801 197.801 0 0 0 4.032-8.04c1.36-2.832 2.68-5.664 3.96-8.496a375.249 375.249 0 0 0 3.528-8.088c1.072-2.56 1.976-4.8 2.712-6.72Z" fill="#865FB5" fill-opacity=".8"/><path d="M378.717 12.328c-.48.528-.904 1.016-1.272 1.464.624.448 1.44 1.016 2.448 1.704 1.024.688 2.088 1.408 3.192 2.16 1.12.752 2.16 1.456 3.12 2.112.288.189.557.365.806.53l.029-.02c.803-.532 1.517-1.006 2.141-1.422l-.72 2.4c-.363-.242-.832-.552-1.407-.93l-.043-.029-.542.359c-1.024.672-2.08 1.368-3.168 2.088-1.088.704-2.12 1.36-3.096 1.968-.96.608-1.776 1.12-2.448 1.536-.672.4-1.08.632-1.224.696 0 .224.056.584.168 1.08.128.496.28 1.04.456 1.632.192.576.384 1.104.576 1.584.208.464.4.784.576.96.24-.064.912-.344 2.016-.84a347.154 347.154 0 0 0 4.056-1.92c1.6-.768 3.28-1.584 5.04-2.448 1.776-.88 3.456-1.72 5.04-2.52l-.168-6.6a148.16 148.16 0 0 0-3.768-2.592 178.939 178.939 0 0 0-3.84-2.568 58.16 58.16 0 0 0-3.192-2.016c-.896-.544-1.504-.856-1.824-.936-.432.24-.912.592-1.44 1.056a22.46 22.46 0 0 0-1.512 1.512Z" fill="#7FB52D"/><path d="m388.461 21.256.72-2.4c-.624.416-1.338.89-2.141 1.422l-.029.02.043.028c.575.378 1.044.688 1.407.93ZM350.628 11.872c-.576-.928-1.264-1.632-2.064-2.112-.512.288-1.312.856-2.4 1.704a122.904 122.904 0 0 0-3.744 3 237.192 237.192 0 0 0-4.32 3.624 581.486 581.486 0 0 0-4.08 3.528l-.096 5.568c2.624.8 5.2 1.704 7.728 2.712a202.24 202.24 0 0 1 7.392 3.048c.24-.816.472-1.792.696-2.928.224-1.136.336-2.096.336-2.88-.432-.336-1.128-.728-2.088-1.176a57.267 57.267 0 0 0-3.144-1.368 76.375 76.375 0 0 0-4.118-1.61c-.531.44-1.071.888-1.618 1.346l.024-1.872c.418.121.934.291 1.549.51l.045.017a235.608 235.608 0 0 1 4.742-3.815 227.59 227.59 0 0 1 6.408-4.872c-.24-.688-.656-1.496-1.248-2.424Z" fill="#7FB52D"/><path d="m339.132 22.456-.024 1.872c.547-.458 1.087-.907 1.618-1.345l-.045-.017c-.615-.219-1.131-.389-1.549-.51Z" fill="#7FB52D"/></svg>