<svg width="395" height="42" viewBox="0 0 395 42" fill="none" xmlns="http://www.w3.org/2000/svg">
<path d="M8.712 37.36C8.312 37.36 7.76 37.344 7.056 37.312C6.352 37.296 5.592 37.272 4.776 37.24C3.976 37.224 3.192 37.2 2.424 37.168C1.672 37.136 1.048 37.104 0.552002 37.072C0.728002 36.08 0.968002 34.816 1.272 33.28C1.592 31.744 1.96 30.04 2.376 28.168C2.792 26.296 3.232 24.344 3.696 22.312C4.16 20.264 4.64 18.232 5.136 16.216C5.632 14.2 6.112 12.288 6.576 10.48C7.04 8.672 7.472 7.064 7.872 5.656C9.488 5.448 11.08 5.28001 12.648 5.15201C14.232 5.008 15.768 4.936 17.256 4.936C18.104 4.936 18.952 4.96 19.8 5.008C20.648 5.056 21.488 5.136 22.32 5.248C22.624 6.656 22.936 8.27201 23.256 10.096C23.576 11.92 23.896 14.072 24.216 16.552C24.552 19.016 24.88 21.92 25.2 25.264C25.536 28.592 25.872 32.472 26.208 36.904C25.68 36.968 24.928 37.04 23.952 37.12C22.976 37.2 21.952 37.256 20.88 37.288C19.824 37.336 18.88 37.36 18.048 37.36C18.016 36.896 17.984 36.368 17.952 35.776C17.936 35.184 17.912 34.552 17.88 33.88C17.848 33.208 17.816 32.528 17.784 31.84C17.768 31.152 17.752 30.488 17.736 29.848C17.72 29.208 17.704 28.616 17.688 28.072C17.176 28.088 16.624 28.112 16.032 28.144C15.44 28.16 14.84 28.192 14.232 28.24C13.64 28.272 13.08 28.312 12.552 28.36C12.024 28.392 11.56 28.432 11.16 28.48C10.76 28.528 10.472 28.568 10.296 28.6C10.056 29.688 9.832 30.784 9.624 31.888C9.416 32.992 9.232 34.024 9.072 34.984C8.912 35.928 8.792 36.72 8.712 37.36ZM11.28 21.952C11.648 21.888 12.224 21.816 13.008 21.736C13.792 21.656 14.608 21.592 15.456 21.544C16.304 21.496 16.992 21.464 17.52 21.448C17.488 21.112 17.448 20.48 17.4 19.552C17.368 18.608 17.32 17.584 17.256 16.48C17.192 15.36 17.128 14.336 17.064 13.408C17.016 12.464 16.968 11.816 16.92 11.464C16.664 11.464 16.28 11.48 15.768 11.512C15.256 11.544 14.76 11.576 14.28 11.608C13.8 11.64 13.464 11.672 13.272 11.704C13.176 12.168 13.04 12.816 12.864 13.648C12.704 14.464 12.528 15.376 12.336 16.384C12.144 17.392 11.952 18.384 11.76 19.36C11.584 20.32 11.424 21.184 11.28 21.952Z" fill="black"/>
<path d="M37.5649 37.312C37.0849 37.328 36.4929 37.328 35.7889 37.312C35.0849 37.312 34.3649 37.304 33.6289 37.288C33.0369 37.272 32.3569 37.248 31.5889 37.216C30.8209 37.184 30.2849 37.152 29.9809 37.12C30.1249 35.776 30.2449 34.256 30.3409 32.56C30.4529 30.864 30.5409 28.984 30.6049 26.92C30.6689 24.856 30.7169 22.6 30.7489 20.152C30.7809 17.704 30.7969 15.056 30.7969 12.208C31.4049 12.128 32.1249 12.064 32.9569 12.016C33.7889 11.968 34.6289 11.944 35.4769 11.944C36.0689 11.944 36.6369 11.96 37.1809 11.992C37.7409 12.008 38.2369 12.056 38.6689 12.136C38.6689 12.28 38.6689 12.576 38.6689 13.024C38.6849 13.456 38.6849 13.936 38.6689 14.464C38.6689 14.976 38.6609 15.44 38.6449 15.856C39.0609 15.248 39.7409 14.616 40.6849 13.96C41.6289 13.288 42.7249 12.72 43.9729 12.256C45.2209 11.792 46.5089 11.56 47.8369 11.56C50.2849 11.56 52.1569 12.056 53.4529 13.048C54.7489 14.024 55.6369 15.496 56.1169 17.464C56.5969 19.416 56.8369 21.864 56.8369 24.808C56.8369 25.832 56.8049 27.032 56.7409 28.408C56.6929 29.768 56.6129 31.2 56.5009 32.704C56.3889 34.208 56.2449 35.664 56.0689 37.072C55.7489 37.104 55.2369 37.128 54.5329 37.144C53.8449 37.176 53.1169 37.192 52.3489 37.192C51.5329 37.192 50.7569 37.176 50.0209 37.144C49.2849 37.128 48.7409 37.104 48.3889 37.072C48.5649 36.176 48.7569 35.056 48.9649 33.712C49.1729 32.368 49.3489 30.936 49.4929 29.416C49.6369 27.88 49.7089 26.416 49.7089 25.024C49.7089 23.68 49.5969 22.512 49.3729 21.52C49.1649 20.528 48.7569 19.76 48.1489 19.216C47.5569 18.656 46.6769 18.376 45.5089 18.376C44.5489 18.376 43.6289 18.544 42.7489 18.88C41.8689 19.216 41.0689 19.632 40.3489 20.128C39.6289 20.608 39.0129 21.08 38.5009 21.544C38.4849 24.072 38.4209 26.36 38.3089 28.408C38.1969 30.44 38.0769 32.208 37.9489 33.712C37.8209 35.2 37.6929 36.4 37.5649 37.312Z" fill="black"/>
<path d="M79.2641 36.928C79.2321 36.704 79.2081 36.384 79.1921 35.968C79.1761 35.552 79.1601 35.128 79.1441 34.696C79.1441 34.248 79.1441 33.888 79.1441 33.616C78.9521 33.888 78.6481 34.216 78.2321 34.6C77.8321 34.968 77.3121 35.336 76.6721 35.704C76.0321 36.072 75.2561 36.384 74.3441 36.64C73.4321 36.88 72.3681 37 71.1521 37C69.1361 37 67.4001 36.512 65.9441 35.536C64.4881 34.56 63.3681 33.232 62.5841 31.552C61.8001 29.856 61.4081 27.952 61.4081 25.84C61.4081 23.76 61.8001 21.824 62.5841 20.032C63.3841 18.224 64.5761 16.768 66.1601 15.664C67.7441 14.544 69.7361 13.984 72.1361 13.984C73.3361 13.984 74.4241 14.12 75.4001 14.392C76.3921 14.664 77.2321 15.008 77.9201 15.424C78.6081 15.824 79.0961 16.232 79.3841 16.648C79.4321 15.768 79.4961 14.76 79.5761 13.624C79.6561 12.472 79.7441 11.296 79.8401 10.096C79.9521 8.88 80.0561 7.728 80.1521 6.64C80.2481 5.552 80.3281 4.624 80.3921 3.856C80.4721 3.072 80.5281 2.552 80.5601 2.296C81.4881 2.296 82.5281 2.352 83.6801 2.46401C84.8481 2.56 85.8801 2.728 86.7761 2.968C86.5041 6.632 86.2881 10.296 86.1281 13.96C85.9681 17.608 85.8561 21.344 85.7921 25.168C85.7441 28.976 85.7201 32.968 85.7201 37.144C85.3521 37.144 84.7441 37.136 83.8961 37.12C83.0641 37.104 82.2081 37.08 81.3281 37.048C80.4481 37.016 79.7601 36.976 79.2641 36.928ZM73.1441 30.016C73.8481 30.016 74.4961 29.936 75.0881 29.776C75.6801 29.616 76.2241 29.4 76.7201 29.128C77.2161 28.84 77.6481 28.536 78.0161 28.216C78.4001 27.88 78.7201 27.544 78.9761 27.208C78.9761 26.888 78.9761 26.496 78.9761 26.032C78.9761 25.552 78.9761 25.072 78.9761 24.592C78.9921 24.112 79.0001 23.656 79.0001 23.224C79.0161 22.792 79.0321 22.456 79.0481 22.216C78.6961 21.88 78.2081 21.552 77.5841 21.232C76.9601 20.912 76.2721 20.656 75.5201 20.464C74.7841 20.256 74.0321 20.152 73.2641 20.152C71.6961 20.152 70.4721 20.624 69.5921 21.568C68.7281 22.496 68.2961 23.704 68.2961 25.192C68.2961 26.76 68.7121 27.96 69.5441 28.792C70.3921 29.608 71.5921 30.016 73.1441 30.016Z" fill="black"/>
<path d="M97.6316 15.496C97.9996 14.776 98.5596 14.088 99.3116 13.432C100.08 12.776 100.984 12.24 102.024 11.824C103.08 11.408 104.2 11.2 105.384 11.2C106.104 11.2 106.832 11.272 107.568 11.416C108.304 11.56 108.84 11.752 109.176 11.992L107.688 19.624C107.336 19.48 106.88 19.32 106.32 19.144C105.76 18.968 105.12 18.88 104.4 18.88C103.664 18.88 102.944 19.008 102.24 19.264C101.552 19.504 100.912 19.848 100.32 20.296C99.7276 20.744 99.2076 21.28 98.7596 21.904C98.9196 22.832 99.0956 24.016 99.2876 25.456C99.4956 26.896 99.6876 28.376 99.8636 29.896C100.04 31.416 100.184 32.8 100.296 34.048C100.408 35.296 100.464 36.208 100.464 36.784C99.3436 36.928 98.0476 37.024 96.5756 37.072C95.1036 37.12 93.6876 37.136 92.3276 37.12C92.3276 35.776 92.2876 34.248 92.2076 32.536C92.1436 30.824 92.0476 29.04 91.9196 27.184C91.7916 25.312 91.6316 23.472 91.4396 21.664C91.2636 19.84 91.0556 18.152 90.8156 16.6C90.5916 15.048 90.3516 13.728 90.0956 12.64C90.8636 12.416 91.7116 12.208 92.6396 12.016C93.5676 11.824 94.4076 11.672 95.1596 11.56C95.9116 11.432 96.3916 11.36 96.5996 11.344C96.7916 11.792 97.0076 12.456 97.2476 13.336C97.4876 14.2 97.6156 14.92 97.6316 15.496Z" fill="black"/>
<path d="M134.371 32.704C133.923 33.248 133.363 33.784 132.691 34.312C132.019 34.84 131.211 35.32 130.267 35.752C129.339 36.168 128.275 36.504 127.075 36.76C125.875 37 124.531 37.12 123.043 37.12C120.627 37.12 118.483 36.664 116.611 35.752C114.739 34.824 113.275 33.456 112.219 31.648C111.179 29.824 110.659 27.56 110.659 24.856C110.659 22.152 111.203 19.8 112.291 17.8C113.379 15.784 114.899 14.224 116.851 13.12C118.803 12 121.083 11.44 123.691 11.44C126.987 11.44 129.579 12.36 131.467 14.2C133.371 16.024 134.363 18.552 134.443 21.784C134.459 22.376 134.451 22.912 134.419 23.392C134.387 23.872 134.323 24.384 134.227 24.928C133.987 24.912 133.475 24.896 132.691 24.88C131.907 24.864 131.019 24.848 130.027 24.832C129.051 24.8 128.123 24.776 127.243 24.76C126.379 24.744 125.739 24.736 125.323 24.736C123.931 24.736 122.579 24.8 121.267 24.928C119.971 25.056 118.883 25.192 118.003 25.336C118.003 25.624 118.019 25.912 118.051 26.2C118.099 26.472 118.163 26.736 118.243 26.992C118.451 27.648 118.811 28.208 119.323 28.672C119.851 29.136 120.475 29.496 121.195 29.752C121.931 29.992 122.707 30.112 123.523 30.112C124.259 30.112 124.931 30.024 125.539 29.848C126.163 29.656 126.731 29.408 127.243 29.104C127.755 28.8 128.219 28.472 128.635 28.12C129.067 27.752 129.467 27.392 129.835 27.04C129.931 27.12 130.179 27.36 130.579 27.76C130.979 28.144 131.427 28.624 131.923 29.2C132.419 29.76 132.891 30.352 133.339 30.976C133.787 31.6 134.131 32.176 134.371 32.704ZM118.267 20.848C118.987 20.736 119.875 20.632 120.931 20.536C121.987 20.44 123.211 20.392 124.603 20.392C125.355 20.392 126.019 20.4 126.595 20.416C127.187 20.432 127.603 20.448 127.843 20.464C127.843 20.128 127.795 19.76 127.699 19.36C127.571 18.816 127.315 18.296 126.931 17.8C126.563 17.304 126.083 16.904 125.491 16.6C124.915 16.296 124.219 16.144 123.403 16.144C122.379 16.144 121.483 16.368 120.715 16.816C119.963 17.264 119.379 17.848 118.963 18.568C118.547 19.288 118.315 20.048 118.267 20.848ZM127.795 0.784004C128.547 1.168 129.219 1.656 129.811 2.248C130.403 2.824 130.891 3.368 131.275 3.88C131.675 4.376 131.939 4.728 132.067 4.936C131.475 5.16 130.803 5.44 130.051 5.776C129.299 6.096 128.531 6.45601 127.747 6.856C126.979 7.24 126.243 7.616 125.539 7.984C124.835 8.352 124.211 8.688 123.667 8.992C123.139 9.29601 122.747 9.52801 122.491 9.68801C122.363 9.624 122.115 9.504 121.747 9.32801C121.395 9.136 121.003 8.92 120.571 8.68C120.139 8.424 119.731 8.176 119.347 7.936C118.979 7.68 118.723 7.472 118.579 7.312C119.011 6.768 119.635 6.15201 120.451 5.46401C121.283 4.776 122.171 4.104 123.115 3.448C124.075 2.792 124.979 2.224 125.827 1.744C126.675 1.248 127.331 0.928003 127.795 0.784004Z" fill="black"/>
<path d="M164.19 37.384C162.99 37.384 161.766 37.24 160.518 36.952C159.286 36.664 158.086 36.24 156.918 35.68C155.766 35.12 154.71 34.432 153.75 33.616C152.79 32.784 151.982 31.832 151.326 30.76C151.422 30.6 151.678 30.328 152.094 29.944C152.51 29.544 152.99 29.112 153.534 28.648C154.078 28.168 154.614 27.728 155.142 27.328C155.686 26.928 156.134 26.64 156.486 26.464C156.998 27.056 157.542 27.648 158.118 28.24C158.71 28.832 159.334 29.368 159.99 29.848C160.662 30.312 161.382 30.688 162.15 30.976C162.918 31.264 163.734 31.408 164.598 31.408C165.59 31.408 166.374 31.224 166.95 30.856C167.542 30.488 167.966 30.024 168.222 29.464C168.478 28.888 168.606 28.304 168.606 27.712C168.606 27.232 168.486 26.776 168.246 26.344C168.006 25.912 167.646 25.504 167.166 25.12C166.686 24.72 166.086 24.336 165.366 23.968C164.662 23.584 163.83 23.224 162.87 22.888C160.95 22.152 159.214 21.376 157.662 20.56C156.11 19.728 154.87 18.728 153.942 17.56C153.03 16.392 152.574 14.928 152.574 13.168C152.574 11.296 153.094 9.72801 154.134 8.46401C155.174 7.20001 156.55 6.248 158.262 5.608C159.974 4.952 161.814 4.624 163.782 4.624C165.27 4.624 166.71 4.792 168.102 5.128C169.51 5.448 170.822 5.936 172.038 6.592C173.254 7.248 174.302 8.072 175.182 9.064C174.942 9.416 174.566 9.888 174.054 10.48C173.542 11.072 172.998 11.664 172.422 12.256C171.846 12.848 171.358 13.32 170.958 13.672C170.318 13.048 169.606 12.488 168.822 11.992C168.038 11.48 167.214 11.08 166.35 10.792C165.486 10.488 164.614 10.336 163.734 10.336C162.71 10.336 161.846 10.56 161.142 11.008C160.438 11.44 160.086 12.096 160.086 12.976C160.086 13.376 160.174 13.736 160.35 14.056C160.542 14.376 160.806 14.664 161.142 14.92C161.478 15.176 161.878 15.416 162.342 15.64C162.806 15.848 163.326 16.048 163.902 16.24C165.534 16.784 167.086 17.352 168.558 17.944C170.046 18.536 171.358 19.224 172.494 20.008C173.646 20.776 174.55 21.72 175.206 22.84C175.862 23.96 176.19 25.328 176.19 26.944C176.19 28.464 175.894 29.864 175.302 31.144C174.71 32.408 173.878 33.512 172.806 34.456C171.75 35.384 170.486 36.104 169.014 36.616C167.558 37.128 165.95 37.384 164.19 37.384Z" fill="black"/>
<path d="M188.702 36.952C188.43 36.968 187.91 37 187.142 37.048C186.39 37.112 185.59 37.144 184.742 37.144C184.118 37.144 183.486 37.12 182.846 37.072C182.222 37.04 181.606 36.992 180.998 36.928C181.078 36.512 181.166 35.664 181.262 34.384C181.374 33.088 181.478 31.568 181.574 29.824C181.686 28.08 181.79 26.28 181.886 24.424C181.998 22.552 182.078 20.8 182.126 19.168C182.19 17.536 182.222 16.224 182.222 15.232C182.542 15.216 183.014 15.192 183.638 15.16C184.262 15.128 184.934 15.104 185.654 15.088C186.374 15.056 187.062 15.032 187.718 15.016C188.374 14.984 188.894 14.968 189.278 14.968C189.358 15.464 189.422 16.264 189.47 17.368C189.518 18.472 189.542 19.704 189.542 21.064C189.542 22.52 189.518 24.064 189.47 25.696C189.438 27.328 189.382 28.912 189.302 30.448C189.238 31.968 189.15 33.312 189.038 34.48C188.926 35.632 188.814 36.456 188.702 36.952ZM186.014 11.872C184.574 11.872 183.366 11.456 182.39 10.624C181.414 9.776 180.926 8.664 180.926 7.288C180.926 6.344 181.158 5.536 181.622 4.864C182.086 4.192 182.686 3.68 183.422 3.328C184.174 2.96 184.966 2.776 185.798 2.776C187.126 2.776 188.222 3.208 189.086 4.072C189.966 4.936 190.406 6.048 190.406 7.408C190.406 8.672 189.99 9.736 189.158 10.6C188.326 11.448 187.278 11.872 186.014 11.872Z" fill="black"/>
<path d="M196.81 37.192C196.73 36.152 196.65 34.824 196.57 33.208C196.506 31.592 196.442 29.84 196.378 27.952C196.33 26.048 196.282 24.16 196.234 22.288C196.202 20.416 196.178 18.688 196.162 17.104C196.146 15.504 196.138 14.216 196.138 13.24C196.522 13.144 197.034 13.048 197.674 12.952C198.314 12.84 198.994 12.744 199.714 12.664C200.434 12.568 201.114 12.496 201.754 12.448C202.41 12.384 202.938 12.352 203.338 12.352C203.354 12.608 203.37 12.936 203.386 13.336C203.402 13.72 203.41 14.12 203.41 14.536C203.426 14.952 203.434 15.328 203.434 15.664C203.434 16 203.434 16.256 203.434 16.432C203.53 16.128 203.754 15.736 204.106 15.256C204.458 14.776 204.938 14.296 205.546 13.816C206.17 13.336 206.922 12.936 207.802 12.616C208.682 12.28 209.698 12.112 210.85 12.112C211.954 12.112 212.89 12.32 213.658 12.736C214.426 13.152 215.066 13.696 215.578 14.368C216.09 15.04 216.49 15.768 216.778 16.552C216.922 16.936 217.034 17.328 217.114 17.728C217.21 18.128 217.282 18.52 217.33 18.904C217.682 17.736 218.266 16.624 219.082 15.568C219.914 14.496 220.946 13.624 222.178 12.952C223.41 12.264 224.826 11.92 226.426 11.92C228.346 11.92 229.922 12.264 231.154 12.952C232.402 13.64 233.37 14.656 234.058 16C234.746 17.344 235.226 18.992 235.498 20.944C235.77 22.896 235.906 25.128 235.906 27.64C235.906 28.632 235.882 29.672 235.834 30.76C235.802 31.848 235.754 32.944 235.69 34.048C235.626 35.152 235.562 36.224 235.498 37.264C234.922 37.296 234.322 37.32 233.698 37.336C233.074 37.368 232.45 37.384 231.826 37.384C231.202 37.384 230.562 37.368 229.906 37.336C229.266 37.32 228.618 37.288 227.962 37.24C228.282 34.856 228.546 32.664 228.754 30.664C228.962 28.648 229.066 26.88 229.066 25.36C229.066 23.136 228.81 21.44 228.298 20.272C227.802 19.104 226.946 18.52 225.73 18.52C224.626 18.52 223.73 18.856 223.042 19.528C222.354 20.2 221.818 21.128 221.434 22.312C221.05 23.496 220.77 24.872 220.594 26.44C220.434 27.992 220.322 29.656 220.258 31.432C220.226 32.328 220.194 33.264 220.162 34.24C220.13 35.216 220.114 36.208 220.114 37.216C219.794 37.232 219.338 37.248 218.746 37.264C218.17 37.296 217.562 37.312 216.922 37.312C216.17 37.312 215.442 37.296 214.738 37.264C214.05 37.248 213.546 37.216 213.226 37.168C213.21 36.08 213.202 35.056 213.202 34.096C213.202 33.136 213.202 32.152 213.202 31.144C213.202 29.32 213.154 27.64 213.058 26.104C212.978 24.552 212.802 23.208 212.53 22.072C212.258 20.92 211.85 20.024 211.306 19.384C210.778 18.744 210.058 18.424 209.146 18.424C208.522 18.424 207.914 18.56 207.322 18.832C206.73 19.104 206.186 19.456 205.69 19.888C205.21 20.32 204.802 20.8 204.466 21.328C204.146 21.84 203.922 22.352 203.794 22.864C203.89 25.408 203.994 27.728 204.106 29.824C204.218 31.92 204.322 33.632 204.418 34.96C204.514 36.272 204.578 37.064 204.61 37.336C204.434 37.352 204.066 37.368 203.506 37.384C202.946 37.4 202.458 37.408 202.042 37.408C201.034 37.408 200.026 37.384 199.018 37.336C198.01 37.288 197.274 37.24 196.81 37.192Z" fill="black"/>
<path d="M253.181 37.528C248.941 37.528 245.749 36.408 243.605 34.168C241.461 31.912 240.389 28.64 240.389 24.352C240.389 21.488 240.941 19.112 242.045 17.224C243.149 15.32 244.677 13.888 246.629 12.928C248.597 11.968 250.869 11.488 253.445 11.488C256.069 11.488 258.245 12.088 259.973 13.288C261.717 14.488 263.021 16.144 263.885 18.256C264.749 20.368 265.181 22.808 265.181 25.576C265.181 27.992 264.717 30.096 263.789 31.888C262.861 33.68 261.501 35.072 259.709 36.064C257.933 37.04 255.757 37.528 253.181 37.528ZM252.917 30.64C253.797 30.64 254.573 30.488 255.245 30.184C255.933 29.88 256.509 29.448 256.973 28.888C257.453 28.312 257.813 27.64 258.053 26.872C258.293 26.104 258.413 25.264 258.413 24.352C258.413 22.928 258.205 21.672 257.789 20.584C257.389 19.48 256.789 18.624 255.989 18.016C255.205 17.392 254.229 17.08 253.061 17.08C251.797 17.08 250.765 17.4 249.965 18.04C249.165 18.68 248.573 19.52 248.189 20.56C247.821 21.584 247.637 22.68 247.637 23.848C247.637 25.816 248.085 27.44 248.981 28.72C249.893 30 251.205 30.64 252.917 30.64ZM242.765 5.58401C243.021 4.84801 243.469 4.136 244.109 3.448C244.749 2.744 245.525 2.168 246.437 1.72001C247.349 1.27201 248.325 1.04801 249.365 1.04801C250.293 1.04801 251.085 1.256 251.741 1.672C252.397 2.088 252.989 2.528 253.517 2.992C253.981 3.408 254.445 3.776 254.909 4.096C255.373 4.416 255.893 4.576 256.469 4.576C257.189 4.576 257.773 4.304 258.221 3.76C258.685 3.2 259.029 2.584 259.253 1.91201L262.973 4.216C262.893 4.60001 262.701 5.08 262.397 5.656C262.093 6.216 261.685 6.776 261.173 7.336C260.661 7.896 260.037 8.368 259.301 8.752C258.581 9.12 257.757 9.304 256.829 9.304C255.965 9.304 255.181 9.08 254.477 8.632C253.789 8.184 253.149 7.712 252.557 7.216C252.077 6.8 251.605 6.44 251.141 6.13601C250.677 5.832 250.213 5.68 249.749 5.68C249.125 5.68 248.581 5.856 248.117 6.208C247.669 6.544 247.293 6.944 246.989 7.408C246.701 7.856 246.485 8.248 246.341 8.58401L242.765 5.58401Z" fill="black"/>
<path d="M292.058 32.704C291.61 33.248 291.05 33.784 290.378 34.312C289.706 34.84 288.898 35.32 287.954 35.752C287.026 36.168 285.962 36.504 284.762 36.76C283.562 37 282.218 37.12 280.73 37.12C278.314 37.12 276.17 36.664 274.298 35.752C272.426 34.824 270.962 33.456 269.906 31.648C268.866 29.824 268.346 27.56 268.346 24.856C268.346 22.152 268.89 19.8 269.978 17.8C271.066 15.784 272.586 14.224 274.538 13.12C276.49 12 278.77 11.44 281.378 11.44C284.674 11.44 287.266 12.36 289.154 14.2C291.058 16.024 292.05 18.552 292.13 21.784C292.146 22.376 292.138 22.912 292.106 23.392C292.074 23.872 292.01 24.384 291.914 24.928C291.674 24.912 291.162 24.896 290.378 24.88C289.594 24.864 288.706 24.848 287.714 24.832C286.738 24.8 285.81 24.776 284.93 24.76C284.066 24.744 283.426 24.736 283.01 24.736C281.618 24.736 280.266 24.8 278.954 24.928C277.658 25.056 276.57 25.192 275.69 25.336C275.69 25.624 275.706 25.912 275.738 26.2C275.786 26.472 275.85 26.736 275.93 26.992C276.138 27.648 276.498 28.208 277.01 28.672C277.538 29.136 278.162 29.496 278.882 29.752C279.618 29.992 280.394 30.112 281.21 30.112C281.946 30.112 282.618 30.024 283.226 29.848C283.85 29.656 284.418 29.408 284.93 29.104C285.442 28.8 285.906 28.472 286.322 28.12C286.754 27.752 287.154 27.392 287.522 27.04C287.618 27.12 287.866 27.36 288.266 27.76C288.666 28.144 289.114 28.624 289.61 29.2C290.106 29.76 290.578 30.352 291.026 30.976C291.474 31.6 291.818 32.176 292.058 32.704ZM275.954 20.848C276.674 20.736 277.562 20.632 278.618 20.536C279.674 20.44 280.898 20.392 282.29 20.392C283.042 20.392 283.706 20.4 284.282 20.416C284.874 20.432 285.29 20.448 285.53 20.464C285.53 20.128 285.482 19.76 285.386 19.36C285.258 18.816 285.002 18.296 284.618 17.8C284.25 17.304 283.77 16.904 283.178 16.6C282.602 16.296 281.906 16.144 281.09 16.144C280.066 16.144 279.17 16.368 278.402 16.816C277.65 17.264 277.066 17.848 276.65 18.568C276.234 19.288 276.002 20.048 275.954 20.848Z" fill="black"/>
<path d="M306.816 38.896C304.944 38.896 303.224 38.664 301.656 38.2C300.104 37.752 298.784 37.224 297.696 36.616C296.624 35.992 295.848 35.432 295.368 34.936C295.464 34.632 295.648 34.192 295.92 33.616C296.208 33.024 296.544 32.384 296.928 31.696C297.312 31.008 297.696 30.368 298.08 29.776C298.464 29.184 298.808 28.744 299.112 28.456C299.88 29.112 300.712 29.76 301.608 30.4C302.504 31.024 303.424 31.536 304.368 31.936C305.312 32.336 306.192 32.536 307.008 32.536C307.648 32.536 308.224 32.456 308.736 32.296C309.248 32.12 309.648 31.864 309.936 31.528C310.24 31.192 310.392 30.776 310.392 30.28C310.392 29.704 310.112 29.152 309.552 28.624C309.008 28.08 308.304 27.568 307.44 27.088C306.576 26.608 305.672 26.176 304.728 25.792C303.432 25.264 302.224 24.648 301.104 23.944C299.984 23.224 299.08 22.344 298.392 21.304C297.704 20.248 297.36 18.936 297.36 17.368C297.36 15.768 297.832 14.424 298.776 13.336C299.72 12.248 300.952 11.424 302.472 10.864C304.008 10.304 305.648 10.024 307.392 10.024C309.04 10.024 310.712 10.256 312.408 10.72C314.104 11.168 315.488 11.816 316.56 12.664C316.464 12.968 316.256 13.432 315.936 14.056C315.632 14.68 315.256 15.352 314.808 16.072C314.376 16.776 313.912 17.424 313.416 18.016C312.76 17.456 311.936 16.92 310.944 16.408C309.952 15.896 308.912 15.64 307.824 15.64C307.28 15.64 306.736 15.696 306.192 15.808C305.664 15.92 305.224 16.12 304.872 16.408C304.536 16.696 304.368 17.088 304.368 17.584C304.368 18.064 304.552 18.496 304.92 18.88C305.288 19.248 305.824 19.608 306.528 19.96C307.248 20.312 308.088 20.68 309.048 21.064C310.008 21.448 310.984 21.904 311.976 22.432C312.968 22.944 313.88 23.56 314.712 24.28C315.56 25 316.24 25.84 316.752 26.8C317.264 27.744 317.52 28.832 317.52 30.064C317.52 32.032 317.032 33.672 316.056 34.984C315.08 36.296 313.776 37.272 312.144 37.912C310.528 38.568 308.752 38.896 306.816 38.896Z" fill="black"/>
<path d="M370.491 0.328003C372.091 0.648005 373.331 1.016 374.211 1.432C375.091 1.848 375.755 2.32 376.203 2.848C374.955 6.784 373.579 10.624 372.075 14.368C370.571 18.112 369.011 21.656 367.395 25C365.795 28.328 364.203 31.376 362.619 34.144C361.035 36.912 359.531 39.296 358.107 41.296C357.051 41.056 356.003 40.64 354.963 40.048C353.923 39.456 353.099 38.864 352.491 38.272C353.675 36.384 354.931 34.184 356.259 31.672C357.603 29.144 358.947 26.464 360.291 23.632C361.651 20.8 362.971 17.968 364.251 15.136C365.531 12.288 366.707 9.592 367.779 7.04801C368.851 4.488 369.755 2.248 370.491 0.328003Z" fill="#865FB5" fill-opacity="0.8"/>
<path d="M378.717 12.328C378.237 12.856 377.813 13.344 377.445 13.792C378.069 14.24 378.885 14.808 379.893 15.496C380.917 16.184 381.981 16.904 383.085 17.656C384.205 18.408 385.245 19.112 386.205 19.768C386.493 19.957 386.762 20.1334 387.011 20.2973L387.04 20.2783C387.843 19.7461 388.557 19.272 389.181 18.856L388.461 21.256C388.098 21.014 387.629 20.7039 387.054 20.3258L387.011 20.2973L386.469 20.656C385.445 21.328 384.389 22.024 383.301 22.744C382.213 23.448 381.181 24.104 380.205 24.712C379.245 25.32 378.429 25.832 377.757 26.248C377.085 26.648 376.677 26.88 376.533 26.944C376.533 27.168 376.589 27.528 376.701 28.024C376.829 28.52 376.981 29.064 377.157 29.656C377.349 30.232 377.541 30.76 377.733 31.24C377.941 31.704 378.133 32.024 378.309 32.2C378.549 32.136 379.221 31.856 380.325 31.36C381.429 30.848 382.781 30.208 384.381 29.44C385.981 28.672 387.661 27.856 389.421 26.992C391.197 26.112 392.877 25.272 394.461 24.472L394.293 17.872C393.125 17.04 391.869 16.176 390.525 15.28C389.197 14.368 387.917 13.512 386.685 12.712C385.469 11.896 384.405 11.224 383.493 10.696C382.597 10.152 381.989 9.84 381.669 9.76C381.237 10 380.757 10.352 380.229 10.816C379.717 11.28 379.213 11.784 378.717 12.328Z" fill="#7FB52D"/>
<path d="M388.461 21.256L389.181 18.856C388.557 19.272 387.843 19.7461 387.04 20.2783L387.011 20.2973L387.054 20.3258C387.629 20.7039 388.098 21.014 388.461 21.256Z" fill="#7FB52D"/>
<path d="M350.628 11.872C350.052 10.944 349.364 10.24 348.564 9.76C348.052 10.048 347.252 10.616 346.164 11.464C345.076 12.296 343.828 13.296 342.42 14.464C341.012 15.616 339.572 16.824 338.1 18.088C336.644 19.336 335.284 20.512 334.02 21.616L333.924 27.184C336.548 27.984 339.124 28.888 341.652 29.896C344.196 30.888 346.66 31.904 349.044 32.944C349.284 32.128 349.516 31.152 349.74 30.016C349.964 28.88 350.076 27.92 350.076 27.136C349.644 26.8 348.948 26.408 347.988 25.96C347.044 25.512 345.996 25.056 344.844 24.592C343.708 24.112 342.62 23.68 341.58 23.296C341.277 23.1825 340.993 23.0782 340.726 22.9829C340.195 23.4213 339.655 23.8698 339.108 24.328L339.132 22.456C339.55 22.577 340.066 22.7472 340.681 22.9665L340.726 22.9829C342.385 21.6149 343.965 20.3433 345.468 19.168C347.452 17.6 349.588 15.976 351.876 14.296C351.636 13.608 351.22 12.8 350.628 11.872Z" fill="#7FB52D"/>
<path d="M339.132 22.456L339.108 24.328C339.655 23.8698 340.195 23.4213 340.726 22.9829L340.681 22.9665C340.066 22.7472 339.55 22.577 339.132 22.456Z" fill="#7FB52D"/>
</svg>
